<?xml version="1.0" standalone="no"?>
<!DOCTYPE svg PUBLIC "-//W3C//DTD SVG 20010904//EN"
 "http://www.w3.org/TR/2001/REC-SVG-20010904/DTD/svg10.dtd">
<svg version="1.0" xmlns="http://www.w3.org/2000/svg"
 width="512.000000pt" height="512.000000pt" viewBox="0 0 512.000000 512.000000"
 preserveAspectRatio="xMidYMid meet">

<g transform="translate(0.000000,512.000000) scale(0.100000,-0.100000)"
fill="#000000" stroke="none">
<path d="M721 4723 c-11 -10 -145 -281 -298 -603 l-277 -585 -4 -174 c-2 -102
2 -195 8 -227 26 -126 127 -256 241 -311 l59 -28 0 -1187 0 -1187 26 -20 27
-21 2057 0 2057 0 27 21 26 20 0 1187 0 1187 59 28 c114 55 215 185 241 311 6
32 10 125 8 227 l-4 174 -277 585 c-153 322 -287 593 -298 603 -20 16 -122 17
-1839 17 -1717 0 -1819 -1 -1839 -17z m449 -127 c0 -9 -231 -1021 -234 -1023
-2 -2 -140 -2 -308 -1 l-305 3 240 513 241 512 183 0 c101 0 183 -2 183 -4z
m728 -103 c-10 -60 -51 -290 -91 -513 l-72 -405 -328 -3 c-310 -2 -328 -1
-323 15 2 10 55 242 117 516 l113 497 301 0 302 0 -19 -107z m592 -408 l0
-515 -305 0 c-276 0 -305 2 -305 16 0 18 168 969 176 997 5 15 24 17 220 17
l214 0 0 -515z m574 498 c8 -28 176 -979 176 -997 0 -14 -29 -16 -305 -16
l-305 0 0 515 0 515 214 0 c196 0 215 -2 220 -17z m855 -480 c62 -274 115
-506 117 -516 5 -16 -13 -17 -323 -15 l-328 3 -67 375 c-37 206 -78 437 -91
513 l-24 137 302 0 301 0 113 -497z m638 -15 l240 -513 -305 -3 c-168 -1 -306
-1 -308 1 -3 2 -234 1014 -234 1023 0 2 82 4 183 4 l183 0 241 -512z m-3639
-810 c-3 -131 -6 -147 -30 -193 -70 -134 -207 -199 -354 -169 -36 8 -75 19
-86 25 -42 23 -111 95 -136 144 -24 46 -27 62 -30 193 l-4 142 322 0 322 0 -4
-142z m782 14 c0 -91 -5 -142 -16 -175 -22 -64 -92 -140 -162 -174 -49 -24
-69 -28 -142 -28 -72 0 -92 4 -135 27 -68 35 -122 92 -154 158 -23 49 -26 70
-29 188 l-4 132 321 0 321 0 0 -128z m788 -9 c-3 -114 -7 -146 -25 -185 -102
-224 -409 -257 -554 -60 -49 66 -59 111 -59 253 l0 129 321 0 321 0 -4 -137z
m782 8 c0 -143 -10 -185 -61 -257 -83 -114 -254 -160 -383 -101 -73 34 -130
88 -163 155 -26 52 -28 68 -31 195 l-4 137 321 0 321 0 0 -129z m788 -3 c-3
-118 -6 -139 -29 -188 -32 -68 -84 -122 -152 -158 -45 -23 -64 -27 -137 -27
-110 0 -171 26 -239 101 -68 74 -81 119 -81 276 l0 128 321 0 321 0 -4 -132z
m780 -10 c-3 -131 -6 -147 -30 -193 -25 -49 -94 -121 -136 -144 -11 -6 -50
-17 -86 -25 -70 -14 -136 -9 -199 17 -52 22 -125 93 -155 152 -24 46 -27 62
-30 193 l-4 142 322 0 322 0 -4 -142z m-2979 -386 c96 -90 249 -137 378 -115
100 18 200 71 267 144 l56 60 55 -59 c156 -169 404 -198 595 -71 34 23 78 63
97 89 l36 48 39 -50 c71 -89 190 -151 318 -164 129 -14 282 46 373 146 l53 59
70 -67 c82 -81 154 -118 259 -135 l75 -12 0 -1122 0 -1123 -1225 0 -1225 0 -2
599 c-3 573 -4 600 -22 620 -19 21 -24 21 -511 21 -487 0 -492 0 -511 -21 -18
-20 -19 -47 -22 -620 l-2 -599 -210 0 -210 0 0 1123 0 1122 76 13 c108 17 191
61 264 139 l60 63 62 -63 c69 -71 136 -109 231 -133 158 -41 356 27 454 155
l38 49 19 -27 c11 -14 40 -45 65 -69z m79 -1819 l2 -553 -395 0 -395 0 0 548
c0 302 3 552 7 555 4 4 180 6 392 5 l386 -3 3 -552z"/>
<path d="M2583 2246 l-28 -24 -5 -434 -5 -433 -54 -5 c-59 -6 -81 -25 -81 -71
0 -18 9 -35 26 -48 27 -21 32 -21 859 -21 827 0 832 0 859 21 17 13 26 30 26
48 0 46 -22 65 -81 71 l-54 5 -5 433 -5 434 -28 24 -28 24 -684 0 -684 0 -28
-24z m1325 -503 l-3 -388 -610 0 -610 0 -3 388 -2 387 615 0 615 0 -2 -387z"/>
</g>
</svg>
