<?xml version="1.0" standalone="no"?>
<!DOCTYPE svg PUBLIC "-//W3C//DTD SVG 20010904//EN"
 "http://www.w3.org/TR/2001/REC-SVG-20010904/DTD/svg10.dtd">
<svg version="1.0" xmlns="http://www.w3.org/2000/svg"
 width="512.000000pt" height="512.000000pt" viewBox="0 0 512.000000 512.000000"
 preserveAspectRatio="xMidYMid meet">

<g transform="translate(0.000000,512.000000) scale(0.100000,-0.100000)"
fill="#000000" stroke="none">
<path d="M2515 5069 c-75 -26 -156 -80 -199 -133 -19 -22 -89 -137 -156 -253
l-123 -213 -821 0 c-896 0 -887 1 -986 -57 -110 -65 -196 -185 -220 -308 -8
-44 -10 -463 -8 -1535 l3 -1475 22 -54 c53 -128 146 -223 271 -273 l57 -23
751 -3 751 -3 6 -75 c6 -80 -6 -267 -23 -369 -5 -33 -10 -61 -10 -62 0 -2
-128 -3 -285 -3 -306 0 -341 -5 -365 -50 -21 -40 -15 -89 16 -121 l28 -29
1336 0 1336 0 28 29 c31 32 37 81 16 121 -24 45 -59 50 -368 50 l-289 0 -12
73 c-20 124 -31 287 -24 363 l6 73 756 3 756 3 55 22 c126 52 222 148 272 271
l23 57 3 1529 c3 1699 7 1588 -64 1693 -41 60 -120 118 -189 138 -41 13 -186
15 -921 15 l-874 0 10 25 c53 139 15 330 -88 446 -117 131 -314 184 -477 128z
m232 -194 c114 -48 175 -159 152 -278 -6 -36 -68 -163 -95 -196 -1 -2 -100 52
-218 120 l-215 124 36 65 c44 81 96 137 148 161 49 23 142 25 192 4z m-242
-537 c105 -61 191 -111 193 -113 3 -2 -804 -1404 -814 -1414 -2 -2 -100 51
-219 119 l-215 124 24 40 c13 23 191 331 396 686 204 355 378 655 386 668 17
27 -9 38 249 -110z m-608 -110 c-250 -431 -663 -1151 -674 -1176 -11 -27 -13
-103 -11 -404 l3 -370 33 -29 32 -29 1279 0 1279 0 30 25 c35 29 45 69 28 110
-27 64 55 60 -1123 65 l-1073 5 146 86 147 85 482 835 481 834 926 3 925 2 33
-22 c18 -13 43 -36 54 -51 l21 -28 3 -1265 2 -1264 -2360 0 -2360 0 2 1223 3
1223 25 48 c29 56 80 101 136 121 32 12 179 14 797 15 l759 0 -25 -42z m-328
-1473 c78 -44 141 -83 141 -86 0 -8 -278 -169 -291 -169 -5 0 -9 75 -9 171 0
102 4 169 9 167 6 -1 73 -39 150 -83z m3349 -1472 c-3 -130 -7 -164 -22 -193
-26 -49 -74 -98 -121 -123 l-40 -22 -2175 0 -2175 0 -40 22 c-53 28 -99 78
-124 133 -18 39 -21 66 -21 193 l0 147 2361 0 2361 0 -4 -157z m-1871 -690 c1
-82 8 -195 17 -252 9 -58 16 -106 16 -108 0 -2 -237 -3 -526 -3 -496 0 -525 1
-520 18 14 47 28 213 28 345 l1 147 491 0 492 0 1 -147z"/>
<path d="M2705 2998 c-34 -30 -44 -88 -20 -124 35 -53 41 -54 607 -54 478 0
526 2 558 18 60 30 72 108 23 157 l-26 25 -558 0 -558 0 -26 -22z"/>
</g>
</svg>
